<?xml version="1.0" ?><!DOCTYPE svg  PUBLIC '-//W3C//DTD SVG 1.1//EN'  'http://www.w3.org/Graphics/SVG/1.1/DTD/svg11.dtd'>
<svg
   xmlns:dc="http://purl.org/dc/elements/1.1/"
   xmlns:cc="http://creativecommons.org/ns#"
   xmlns:rdf="http://www.w3.org/1999/02/22-rdf-syntax-ns#"
   xmlns:svg="http://www.w3.org/2000/svg"
   xmlns="http://www.w3.org/2000/svg"
   viewBox="0 0 242.5 242.5"
   height="242.5"
   width="242.5"
   xml:space="preserve"
   version="1.1"
   id="svg2"><metadata
     id="metadata8"><rdf:RDF><cc:Work
         rdf:about=""><dc:format>image/svg+xml</dc:format><dc:type
           rdf:resource="http://purl.org/dc/dcmitype/StillImage" /></cc:Work></rdf:RDF></metadata><defs
     id="defs6" /><g
     transform="matrix(1.25,0,0,-1.25,0,242.5)"
     id="g10"><g
       transform="scale(0.1,0.1)"
       id="g12"><path
         id="path14"
         style="fill:#427731;fill-opacity:0;fill-rule:evenodd;stroke:none"
         d="m 2.59766,5.66797 1927.56004,0 0,1927.56003 -1927.56004,0 0,-1927.56003 z" /><path
         id="path16"
         style="fill:#ffffff;fill-opacity:1;fill-rule:evenodd;stroke:none"
         d="m 614.797,1491.78 c -47.258,0 -190.469,20.04 -274.965,-141.78 L 60.5742,824.414 C -18.1953,678.336 63.4375,446.336 265.363,446.336 l 1402.027,0 c 201.93,0 283.56,232 204.8,378.078 L 1592.93,1350 c -84.5,161.82 -227.71,141.78 -274.97,141.78 l -703.163,0" /><path
         id="path18"
         style="fill:#427731;fill-opacity:1;fill-rule:evenodd;stroke:none"
         d="m 299.734,509.352 c -37.234,0 -113.55,-9.801 -171.855,81.628 -63.0079,98.813 -15.75,196.2 8.594,242.028 l 264.941,496.942 c 15.754,25.78 25.777,52.99 71.606,77.33 45.828,24.35 98.816,21.49 127.457,21.49 l 731.803,0 c 28.65,0 81.63,2.86 127.46,-21.49 45.83,-24.34 55.85,-51.55 71.6,-77.33 l 264.94,-496.942 c 24.35,-45.828 71.61,-143.215 8.6,-242.028 -58.31,-91.429 -134.62,-81.628 -171.86,-81.628 l -1333.286,0" /><path
         id="path20"
         style="fill:#ffffff;fill-opacity:1;fill-rule:evenodd;stroke:none"
         d="m 1103.15,887.426 148.94,0 0,-51.555 -97.39,0 0,-64.445 85.93,0 0,-51.555 -85.93,0 0,-68.742 97.39,0 0,-51.555 -148.94,0 0,287.852" /><path
         id="path22"
         style="fill:#ffffff;fill-opacity:1;fill-rule:evenodd;stroke:none"
         d="m 1299.34,887.426 148.94,0 0,-51.555 -97.38,0 0,-64.445 85.92,0 0,-51.555 -85.92,0 0,-68.742 97.38,0 0,-51.555 -148.94,0 0,287.852" /><path
         id="path24"
         style="fill:#ffffff;fill-opacity:1;fill-rule:evenodd;stroke:none"
         d="m 511.688,599.574 51.5547,0 0,287.852 -51.5547,0 0,-287.852 z" /><path
         id="path26"
         style="fill:#ffffff;fill-opacity:1;fill-rule:evenodd;stroke:none"
         d="m 851.094,887.426 77.336,0 64.445,-199.063 0,199.063 51.555,0 0,-287.852 -73.035,0 -68.747,216.25 0,-216.25 -51.554,0 0,287.852" /><path
         id="path28"
         style="fill:#ffffff;fill-opacity:1;fill-rule:evenodd;stroke:none"
         d="m 379.215,685.5 c 27.215,0 88.074,-1.434 88.074,100.965 0,102.39 -60.859,100.961 -88.074,100.961 l -121.012,0 0,-51.555 34.367,0 0,-236.297 51.559,0 0,85.926 35.086,0" /><path
         id="path30"
         style="fill:#427731;fill-opacity:1;fill-rule:evenodd;stroke:none"
         d="m 379.215,835.871 c 20.765,0 36.519,-10.023 36.519,-49.406 0,-39.387 -15.754,-49.41 -36.519,-49.41 l -35.086,0 0,98.816 35.086,0" /><path
         id="path32"
         style="fill:#ffffff;fill-opacity:1;fill-rule:evenodd;stroke:none"
         d="m 709.316,597.426 c 21.485,0 50.125,1.429 73.039,23.633 21.821,21.132 22.915,72.32 22.915,123.156 0,50.84 -1.094,102.023 -22.915,123.164 -22.914,22.195 -51.554,23.629 -73.039,23.629 -21.48,0 -50.125,-1.434 -73.035,-23.629 -21.82,-21.141 -22.914,-72.324 -22.914,-123.164 0,-50.836 1.094,-102.024 22.914,-123.156 22.91,-22.204 51.555,-23.633 73.035,-23.633 0,0 -21.48,0 0,0" /><path
         id="path34"
         style="fill:#427731;fill-opacity:1;fill-rule:evenodd;stroke:none"
         d="m 709.316,648.984 c 15.754,0 28.645,0.715 37.235,10.02 8.594,9.312 7.16,66.598 7.16,85.211 0,18.621 1.434,75.906 -7.16,85.211 -8.59,9.308 -21.481,10.027 -37.235,10.027 -15.75,0 -28.64,-0.719 -37.234,-10.027 -8.59,-9.305 -7.16,-66.59 -7.16,-85.211 0,-18.613 -1.43,-75.899 7.16,-85.211 8.594,-9.305 21.484,-10.02 37.234,-10.02 0,0 -15.75,0 0,0" /><path
         id="path36"
         style="fill:#ffffff;fill-opacity:1;fill-rule:evenodd;stroke:none"
         d="m 1697.78,631.309 c 0,17.402 14.11,30.234 30.79,30.234 16.52,0 30.64,-12.832 30.64,-30.234 0,-17.563 -14.12,-30.395 -30.64,-30.395 -16.68,0 -30.79,12.832 -30.79,30.395 0,0 0,-17.563 0,0" /><path
         id="path38"
         style="fill:#427731;fill-opacity:1;fill-rule:evenodd;stroke:none"
         d="m 1728.57,605.965 c 13.72,0 24.54,10.75 24.54,25.344 0,14.355 -10.82,25.179 -24.54,25.179 -13.87,0 -24.69,-10.824 -24.69,-25.179 0,-14.594 10.82,-25.344 24.69,-25.344 0,0 -13.87,0 0,0" /><path
         id="path40"
         style="fill:#ffffff;fill-opacity:1;fill-rule:evenodd;stroke:none"
         d="m 1722.16,613.746 -5.3,0 0,34.965 13.32,0 c 8.26,0 12.35,-3.047 12.35,-9.945 0,-6.254 -3.93,-8.981 -9.07,-9.621 l 9.95,-15.399 -5.93,0 -9.23,15.156 -6.09,0 0,-15.156" /><path
         id="path42"
         style="fill:#427731;fill-opacity:1;fill-rule:evenodd;stroke:none"
         d="m 1728.49,633.395 c 4.49,0 8.5,0.32 8.5,5.695 0,4.328 -3.92,5.133 -7.61,5.133 l -7.22,0 0,-10.828 6.33,0" /><path
         id="path44"
         style="fill:#ffffff;fill-opacity:1;fill-rule:evenodd;stroke:none"
         d="m 1128.92,937.547 c 90.26,-1.551 141.06,51.558 141.06,124.593 0,73.04 -73.75,113.14 -121.01,113.14 l -20.05,-237.733" /><path
         id="path46"
         style="fill:#ffffff;fill-opacity:1;fill-rule:evenodd;stroke:none"
         d="m 964.23,1013.45 c 27.211,-21.481 81.63,-74.47 164.69,-75.903 90.26,-1.551 140.35,51.558 140.35,124.593 0,73.04 -73.04,113.14 -120.3,113.14 -47.26,0 -98.81,-18.62 -151.798,-60.15 11.448,120.3 103.118,130.32 168.988,128.89 -51.56,74.47 -141.78,45.83 -171.851,2.86 24.341,85.93 -11.457,131.76 -30.079,146.08 -18.613,-14.32 -54.421,-60.15 -30.07,-146.08 -30.078,42.97 -120.301,71.61 -171.855,-2.86 65.879,1.43 157.531,-8.59 168.988,-128.89 -52.988,41.53 -104.543,60.15 -151.805,60.15 -47.258,0 -120.297,-40.1 -120.297,-113.14 0,-73.035 50.094,-126.144 140.348,-124.593 83.063,1.433 137.484,54.422 164.691,75.903 0,0 -27.207,-21.481 0,0" /><path
         id="path48"
         style="fill:#427731;fill-opacity:1;fill-rule:evenodd;stroke:none"
         d="m 1133.21,1112.27 c 48.7,1.43 63.02,-37.23 65.89,-52.99 2.86,-15.75 -20.06,-65.878 -73.04,-63.014 l 7.15,116.004" /><path
         id="path50"
         style="fill:#ffffff;fill-opacity:1;fill-rule:evenodd;stroke:none"
         d="m 1492.68,599.574 51.55,0 0,108.121 19.33,0 60.15,-108.121 58,0 -62.09,112.567 c 22.79,8.171 44.83,30.808 47.5,85.8 -4.41,90.805 -61.65,89.485 -87.8,89.485 l -86.64,0 0,-287.852" /><path
         id="path52"
         style="fill:#427731;fill-opacity:1;fill-rule:evenodd;stroke:none"
         d="m 1544.23,835.871 0,-76.574 35.09,0 c 18.72,0 33.38,7.437 36.07,37.93 -2.69,30.488 -17.35,38.644 -36.07,38.644 l -35.09,0" /><path
         id="path54"
         style="fill:#427731;fill-opacity:1;fill-rule:evenodd;stroke:none"
         d="m 915.539,1052.12 c -25.777,21.48 -62.965,58.46 -120.293,60.15 -48.695,1.43 -65.879,-34.37 -65.879,-52.99 0,-23.63 20.047,-65.878 73.035,-63.014 52.989,2.863 94.52,34.374 113.137,55.854 0,0 -18.617,-21.48 0,0" /><path
         id="path56"
         style="fill:#427731;fill-opacity:1;fill-rule:evenodd;stroke:none"
         d="m 1012.92,1052.12 c 25.78,21.48 62.97,58.46 120.29,60.15 48.7,1.43 65.89,-34.37 65.89,-52.99 0,-23.63 -20.06,-65.878 -73.04,-63.014 -52.99,2.863 -94.52,34.374 -113.14,55.854 0,0 18.62,-21.48 0,0" /></g></g></svg>
