<?xml version="1.0" ?><!DOCTYPE svg  PUBLIC '-//W3C//DTD SVG 1.1//EN'  'http://www.w3.org/Graphics/SVG/1.1/DTD/svg11.dtd'>
<svg version="1.1" xmlns="http://www.w3.org/2000/svg" xmlns:xlink="http://www.w3.org/1999/xlink" x="0px" y="0px" width="200px"
     height="150px" viewBox="0 0 792 612" enable-background="new 0 0 792 612" xml:space="preserve">
<g id="Layer_1" display="none">
    
        <text transform="matrix(1.24 0 0 1 39.584 386.9277)" display="inline" fill="#FFFFFF" font-family="'Georgia'" font-size="433.3948" letter-spacing="-25">X</text>
    
        <text transform="matrix(1 0 0 0.88 390.2163 386.9277)" display="inline" fill="#FFFFFF" font-family="'Georgia'" font-size="433.3948" letter-spacing="-25">I</text>
    
        <text transform="matrix(1 0 0 0.88 533.9512 386.9277)" display="inline" fill="#FFFFFF" font-family="'Georgia'" font-size="433.3948" letter-spacing="-27">I</text>
</g>
<g id="Layer_1_copy">
    <g>
        <path fill="#FFFFFF" d="M472.187,455.02H261.037v-18.209c17.375-0.34,31.417-1.666,42.119-3.974
            c10.703-2.31,16.054-5.855,16.054-10.644c0-2.563-2.44-7.86-7.313-15.9c-4.88-8.033-11.13-17.013-18.757-26.938
            c-8.477-10.951-18.543-23.83-30.199-38.632c-11.657-14.802-23.204-28.962-34.642-42.482
            c-18.663,19.85-39.864,43.761-63.614,71.734c-23.75,27.977-35.625,44.441-35.625,49.398c0,5.641,3.229,9.789,9.699,12.438
            c6.469,2.652,20.729,4.32,42.78,5v18.209H13v-18.209c5.511-0.34,12.561-0.981,21.146-1.923c8.586-0.938,15.632-2.52,21.147-4.744
            c11.02-4.784,19.875-9.958,26.552-15.515c6.678-5.555,13.406-12.098,20.188-19.623c13.554-15.051,30.925-33.819,52.111-56.311
            c21.187-22.487,39.933-42.971,56.25-61.443c-12.307-14.525-28.008-32.942-47.103-55.245c-19.095-22.302-39.462-46.184-61.1-71.648
            c-9.103-10.771-16.243-18.376-21.425-22.824c-5.188-4.444-12.114-8.291-20.789-11.54c-5.078-1.879-12.114-3.374-21.106-4.487
            c-8.994-1.11-16.134-1.836-21.42-2.18V91.119h208.923v18.208c-12.268,0.344-25.018,1.583-38.249,3.718
            c-13.232,2.14-19.845,5.43-19.845,9.874c0,3.25,2.648,8.936,7.95,17.053c5.297,8.123,11.552,16.802,18.767,26.034
            c7.424,9.58,15.692,20.187,24.814,31.815c9.123,11.628,20.257,25.056,33.41,40.274c23.929-26.166,44.579-49.763,61.949-70.8
            c17.366-21.037,26.051-34.716,26.051-41.043c0-5.47-3.979-9.489-11.94-12.054c-7.959-2.564-21.38-4.187-40.261-4.872V91.119
            h168.22v18.208c-5.302,0.172-12.243,0.813-20.829,1.923c-8.586,1.114-15.741,2.693-21.465,4.745
            c-11.025,4.275-19.239,8.892-24.645,13.848c-5.406,4.96-12.665,12.146-21.777,21.562c-16.954,17.639-32.581,34.204-46.88,49.699
            c-14.305,15.496-31.521,34.373-51.649,56.627c16.953,19.466,35.864,41.581,56.737,66.34
            c20.869,24.763,40.843,48.412,59.918,70.952c6.568,7.685,14.091,14.99,22.573,21.913c8.477,6.925,15.368,11.669,20.669,14.233
            c5.089,2.396,12.308,3.058,20.895,3.654c-3.633-0.253,3.081,0.315,21.145,0.825L472.187,455.02z"/>
        <path fill="#FFFFFF" d="M614.271,455.02H441.918l0.132-19.908c4.821,0.101,14.751,0.812,23.479,0.403
            c5.187-0.244,7.848-0.072,14.541-1.16c6.056-0.983,9.812-4.07,12.625-7.432c2.725-3.259,3.848-8.086,3.848-14.105V180.824
            c0-5.265-0.941-9.665-2.821-13.202c-1.884-3.533-6.327-6.506-13.335-8.914c-5.129-1.805-11.586-3.498-19.364-5.078
            c-7.779-1.58-14.148-2.518-19.104-2.821v-16.023l171.999,0.047v16c-5.303,0.151-19.757,0.692-27.105,1.669
            c-7.352,0.98-13.764,2.221-19.233,3.724c-6.499,1.805-10.859,4.739-13.08,8.801c-2.222,4.062-3.332,8.575-3.332,13.54v231.769
            c0,4.965,1.237,9.365,3.719,13.201c2.476,3.837,6.707,6.883,12.693,9.14c3.591,1.206,9.443,2.521,17.566,3.949
            c8.118,1.433,23.484,2.222,29.127,2.37V455.02z"/>
        <path fill="#FFFFFF" d="M779.974,455.02H616.103v-16.023c4.617-0.301,11.284-0.751,20.003-1.354
            c8.72-0.6,14.874-1.503,18.465-2.709c5.642-1.953,9.744-4.626,12.31-8.011c2.563-3.386,3.847-8.086,3.847-14.105V180.824
            c0-5.265-0.942-9.665-2.821-13.202c-1.883-3.533-6.327-6.506-13.335-8.914c-5.129-1.805-11.585-3.498-19.362-5.078
            c-7.781-1.58-14.585-2.536-19.541-2.838v-15.958l164.307-0.047v16.023c-5.302,0.151-11.629,0.716-18.978,1.693
            c-7.353,0.98-13.764,2.221-19.233,3.724c-6.499,1.805-10.859,4.739-13.08,8.801c-2.224,4.062-3.333,8.575-3.333,13.54v231.769
            c0,4.965,1.237,9.365,3.719,13.201c2.477,3.837,6.707,6.883,12.694,9.14c3.591,1.206,9.443,2.521,17.566,3.949
            c8.117,1.433,15.002,2.222,20.645,2.37V455.02z"/>
    </g>
</g>
<g id="Layer_2" display="none">
    <text transform="matrix(1.2255 0 0 0.62 449.5342 132.6484)" display="inline"><tspan x="0" y="0" fill="#FFFFFF" font-family="'TrebuchetMS-Bold'" font-size="126.2915" letter-spacing="-11.424">r</tspan><tspan x="42.339" y="0" fill="#FFFFFF" font-family="'TrebuchetMS-Bold'" font-size="126.2915" letter-spacing="-5.712">o</tspan><tspan x="107.495" y="0" fill="#FFFFFF" font-family="'TrebuchetMS-Bold'" font-size="126.2915" letter-spacing="-8.976">om</tspan></text>
</g>
<g id="Layer_2_copy">
    <g>
        <path fill="#FFFFFF" d="M506.514,100.609c-3.376-1.121-7.079-1.682-11.109-1.682c-4.383,0-8.274,1.007-11.675,3.021
            c-3.4,2.014-5.102,4.473-5.102,7.379v23.322h-18.892l0.067-41.591l18.884,0.005l-0.06,4.385c5.29-3.007,12.318-4.511,21.084-4.511
            c6.448,0,11.385,0.497,14.812,1.491L506.514,100.609z"/>
        <path fill="#FFFFFF" d="M506.331,112.079c0-6.244,3.563-11.329,10.693-15.255c7.128-3.925,16.536-5.888,28.225-5.888
            c12.292,0,21.84,1.887,28.641,5.658c6.802,3.772,10.202,8.934,10.202,15.484c0,6.525-3.465,11.712-10.391,15.561
            c-6.928,3.849-16.412,5.773-28.452,5.773c-12.293,0-21.853-1.943-28.679-5.831C509.743,123.696,506.331,118.528,506.331,112.079z
             M525.979,112.079c0,9.023,6.424,13.535,19.271,13.535c5.895,0,10.566-1.172,14.019-3.518c3.45-2.345,5.176-5.684,5.176-10.017
            c0-8.895-6.398-13.343-19.194-13.343c-5.895,0-10.58,1.173-14.056,3.518C527.717,104.599,525.979,107.874,525.979,112.079z"/>
        <path fill="#FFFFFF" d="M586.178,112.079c0-6.244,3.563-11.329,10.693-15.255c7.128-3.925,16.536-5.888,28.225-5.888
            c12.292,0,21.84,1.887,28.641,5.658c6.802,3.772,10.202,8.934,10.202,15.484c0,6.525-3.465,11.712-10.391,15.561
            c-6.928,3.849-16.412,5.773-28.452,5.773c-12.293,0-21.853-1.943-28.679-5.831C589.59,123.696,586.178,118.528,586.178,112.079z
             M605.825,112.079c0,9.023,6.424,13.535,19.271,13.535c5.895,0,10.566-1.172,14.019-3.518c3.45-2.345,5.176-5.684,5.176-10.017
            c0-8.895-6.398-13.343-19.194-13.343c-5.895,0-10.58,1.173-14.056,3.518C607.563,104.599,605.825,107.874,605.825,112.079z"/>
        <path fill="#FFFFFF" d="M761.15,132.648v-25.654c0-5.377-4.762-8.067-14.283-8.067c-2.822,0-5.542,0.42-8.161,1.262
            c-2.62,0.841-4.459,1.81-5.517,2.906v29.554h-18.893v-27.146c0-2.013-1.235-3.613-3.703-4.798
            c-2.469-1.186-5.945-1.778-10.428-1.778c-2.369,0-4.95,0.446-7.746,1.338c-2.796,0.893-4.825,1.874-6.084,2.944v29.439h-18.892
            V91.701h12.998l3.854,3.594c5.239-2.906,12.016-4.358,20.328-4.358c10.73,0,18.816,1.479,24.258,4.435
            c2.367-1.351,5.668-2.428,9.899-3.231c4.232-0.803,8.464-1.204,12.696-1.204c9.017,0,16.032,1.307,21.046,3.919
            c5.012,2.613,7.519,6.2,7.519,10.762v27.031H761.15z"/>
    </g>
</g>
<g id="Layer_3">
    <circle fill="#FFFFFF" cx="655.654" cy="274.905" r="10.282"/>
</g>
</svg>
